<?xml version="1.0" encoding="UTF-8" standalone="no"?>
<!-- Created with Inkscape (http://www.inkscape.org/) -->

<svg
   width="210mm"
   height="297mm"
   viewBox="0 0 210 297"
   version="1.1"
   id="svg5"
   inkscape:version="1.1.2 (0a00cf5339, 2022-02-04)"
   sodipodi:docname="targetIcon.svg"
   xmlns:inkscape="http://www.inkscape.org/namespaces/inkscape"
   xmlns:sodipodi="http://sodipodi.sourceforge.net/DTD/sodipodi-0.dtd"
   xmlns="http://www.w3.org/2000/svg"
   xmlns:svg="http://www.w3.org/2000/svg">
  <sodipodi:namedview
     id="namedview7"
     pagecolor="#ffffff"
     bordercolor="#666666"
     borderopacity="1.0"
     inkscape:pageshadow="2"
     inkscape:pageopacity="0.0"
     inkscape:pagecheckerboard="0"
     inkscape:document-units="mm"
     showgrid="false"
     inkscape:zoom="0.23967268"
     inkscape:cx="252.4276"
     inkscape:cy="584.12998"
     inkscape:window-width="1366"
     inkscape:window-height="736"
     inkscape:window-x="0"
     inkscape:window-y="0"
     inkscape:window-maximized="1"
     inkscape:current-layer="layer1" />
  <defs
     id="defs2" />
  <g
     inkscape:label="Layer 1"
     inkscape:groupmode="layer"
     id="layer1">
    <g
       id="g230"
       transform="matrix(1.7590254,0,0,1.6929434,-1001.6753,-114.70791)">
      <path
         style="fill:#f3f3f3;stroke-width:0.264583"
         d="m 622.04339,208.72953 c -0.6123,-0.65085 -0.64744,-0.88036 -0.77372,-5.05248 l -0.13229,-4.37066 -2.91042,-0.74134 c -3.8591,-0.98298 -6.29076,-1.87877 -9.71961,-3.58059 -9.97183,-4.94923 -17.8678,-12.8452 -22.81703,-22.81703 -1.70182,-3.42886 -2.59761,-5.86051 -3.5806,-9.71961 l -0.74133,-2.91042 -4.37066,-0.13229 c -4.17212,-0.12628 -4.40163,-0.16143 -5.05249,-0.77372 l -0.68182,-0.64144 v -7.90877 c 0,-4.88467 0.10349,-8.10214 0.27065,-8.41448 0.5288,-0.98808 1.33553,-1.17571 5.63932,-1.31159 l 4.19018,-0.13229 0.76368,-2.9682 c 3.63224,-14.11751 13.40783,-26.07479 26.57471,-32.50555 3.06819,-1.49851 8.14844,-3.29299 10.89725,-3.84919 l 1.63683,-0.33119 0.083,-4.471961 0.083,-4.471956 0.74236,-0.637954 0.74236,-0.637954 h 7.86387 c 8.78103,0 8.79537,0.0028 9.29277,1.793738 0.15037,0.541413 0.27406,2.665537 0.27487,4.720276 l 10e-4,3.735891 1.65364,0.32256 c 2.79208,0.54464 7.84766,2.35051 11.06602,3.95284 10.15962,5.05816 18.2317,13.25295 23.14274,23.49452 1.32525,2.76369 3.09202,7.87536 3.57137,10.33278 l 0.32257,1.65364 3.73589,0.002 c 2.05474,7.9e-4 4.17886,0.1245 4.72028,0.27487 1.79096,0.4974 1.79373,0.51174 1.79373,9.29277 v 7.86387 l -0.63795,0.74236 -0.63795,0.74236 -4.47196,0.083 -4.47196,0.083 -0.3312,1.63683 c -0.55619,2.7487 -2.35066,7.82895 -3.84918,10.89714 -6.41547,13.13557 -18.42194,22.95136 -32.50555,26.57467 l -2.9682,0.76363 -0.13607,4.19022 c -0.13957,4.29797 -0.32919,5.11563 -1.30781,5.63937 -0.31234,0.16716 -3.52981,0.27065 -8.41448,0.27065 h -7.90877 z"
         id="path244" />
      <path
         style="fill:#fde938;stroke-width:0.264583"
         d="m 622.50165,209.11171 c -0.965,-0.56094 -1.23198,-1.8588 -1.23198,-5.98891 v -3.92432 l -1.65365,-0.33989 c -2.33198,-0.47931 -7.46269,-2.22723 -10.04867,-3.42335 -10.69613,-4.94739 -20.11561,-14.59052 -24.79837,-25.38717 -1.1796,-2.71971 -2.46981,-6.64857 -2.95202,-8.98931 l -0.34066,-1.65365 h -3.92432 c -4.18827,0 -5.46165,-0.27219 -6.00268,-1.28312 -0.39811,-0.74388 -0.39097,-15.39465 0.008,-16.27015 0.48587,-1.06636 1.18961,-1.22864 5.63086,-1.29839 l 4.20488,-0.066 0.73928,-2.94309 c 4.13829,-16.47458 16.73579,-29.95957 32.9376,-35.25805 1.73641,-0.56786 3.83158,-1.17069 4.65594,-1.33964 l 1.49883,-0.30717 0.0887,-4.373688 0.0887,-4.373688 0.87662,-0.782818 0.87662,-0.782818 7.81172,0.07736 7.81172,0.07736 0.63822,0.742358 c 0.61775,0.71854 0.63822,0.879847 0.63822,5.027551 v 4.285193 l 3.24115,0.82586 c 12.05773,3.07235 22.63265,10.70856 29.63309,21.3982 2.94431,4.49594 5.43748,10.3801 6.69835,15.80886 l 0.47625,2.05052 h 4.30249 c 4.16599,0 4.32605,0.0202 5.04485,0.63822 l 0.74236,0.63822 0.0774,7.81172 0.0774,7.81172 -0.78282,0.87662 -0.78281,0.87662 -4.37369,0.0887 -4.37369,0.0887 -0.30717,1.49883 c -0.52162,2.54521 -2.30955,7.68227 -3.6464,10.47677 -6.45161,13.48626 -18.64921,23.52409 -32.95129,27.1168 l -2.9431,0.73931 -0.0725,4.38508 -0.0725,4.38508 -0.80773,0.67967 -0.80774,0.67966 -7.71876,-0.008 c -4.99585,-0.005 -7.89084,-0.10808 -8.20657,-0.29161 z m -0.9674,-30.37038 c 0,-2.75299 0.074,-5.19817 0.16435,-5.43374 0.41659,-1.0856 1.31429,-1.20248 9.23557,-1.20248 h 7.57412 l 0.77339,0.7734 0.7734,0.7734 v 5.04743 c 0,4.36522 0.055,5.04744 0.40685,5.04744 0.22377,0 1.50369,-0.42099 2.84427,-0.93553 7.9532,-3.05258 14.81502,-9.30144 18.72186,-17.04947 1.06226,-2.10668 2.36869,-5.56523 2.36869,-6.27072 0,-0.27872 -1.03238,-0.35053 -5.03911,-0.35053 -4.99739,0 -5.04449,-0.005 -5.68854,-0.64943 l -0.64943,-0.64943 v -7.7956 c 0,-4.28758 0.0739,-7.98833 0.16435,-8.2239 0.38334,-0.99896 1.47279,-1.20247 6.43709,-1.20247 2.6266,0 4.77564,-0.0524 4.77564,-0.11653 0,-0.50501 -1.62255,-4.45351 -2.67024,-6.49806 -3.19995,-6.24465 -8.85103,-11.83635 -15.18922,-15.0296 -2.25907,-1.13815 -5.51435,-2.4329 -6.11683,-2.4329 -0.2969,0 -0.36538,0.87024 -0.36538,4.64335 0,4.82541 -0.20948,5.92375 -1.20248,6.3048 -0.23556,0.0904 -3.93632,0.16435 -8.22389,0.16435 h -7.7956 l -0.64943,-0.64943 c -0.64283,-0.64283 -0.64943,-0.69932 -0.64943,-5.55625 0,-4.23869 -0.0554,-4.90682 -0.40685,-4.90682 -0.70621,0 -5.16948,1.82611 -7.19186,2.94248 -5.8248,3.21537 -11.23277,8.7732 -14.28206,14.67786 -0.99605,1.92875 -2.4609,5.62402 -2.4609,6.20793 0,0.14644 2.02244,0.24882 4.91515,0.24882 h 4.91514 l 0.7734,0.77339 0.7734,0.7734 v 7.57412 c 0,7.92128 -0.11688,8.81898 -1.20248,9.23556 -0.23557,0.0904 -2.68075,0.16436 -5.43375,0.16436 -2.75299,0 -5.00544,0.046 -5.00544,0.10219 0,0.0562 0.31297,1.03847 0.6955,2.18281 3.24888,9.71926 11.22805,17.90924 21.00033,21.55517 3.16121,1.17941 2.91042,1.54472 2.91042,-4.23937 z m 6.54954,-17.24177 c -1.68787,-0.3979 -4.17691,-1.81329 -5.47956,-3.11594 -1.5777,-1.57769 -2.51922,-3.18344 -3.0406,-5.18566 -1.7664,-6.78347 2.50977,-13.30852 9.50719,-14.50713 3.42213,-0.58618 6.96208,0.56637 9.6686,3.14795 3.72519,3.55323 4.6642,8.85333 2.38778,13.4774 -2.30976,4.69178 -7.97609,7.37797 -13.04341,6.18338 z"
         id="path242" />
      <path
         style="fill:#cdbd2e;stroke-width:0.264583"
         d="m 622.50165,209.11171 c -0.965,-0.56094 -1.23198,-1.8588 -1.23198,-5.98891 v -3.92432 l -1.65365,-0.33989 c -2.33198,-0.47931 -7.46269,-2.22723 -10.04867,-3.42335 -10.69613,-4.94739 -20.11561,-14.59052 -24.79837,-25.38717 -1.1796,-2.71971 -2.46981,-6.64857 -2.95202,-8.98931 l -0.34066,-1.65365 h -3.92432 c -4.18827,0 -5.46165,-0.27219 -6.00268,-1.28312 -0.39811,-0.74388 -0.39097,-15.39465 0.008,-16.27015 0.48587,-1.06636 1.18961,-1.22864 5.63086,-1.29839 l 4.20488,-0.066 0.73928,-2.94309 c 4.13829,-16.47458 16.73579,-29.95957 32.9376,-35.25805 1.73641,-0.56786 3.83158,-1.17069 4.65594,-1.33964 l 1.49883,-0.30717 0.0887,-4.373688 0.0887,-4.373688 0.87662,-0.782818 0.87662,-0.782818 7.81172,0.07736 7.81172,0.07736 0.63822,0.742358 c 0.61775,0.71854 0.63822,0.879847 0.63822,5.027551 v 4.285193 l 3.24115,0.82586 c 12.05773,3.07235 22.63265,10.70856 29.63309,21.3982 2.94431,4.49594 5.43748,10.3801 6.69835,15.80886 l 0.47625,2.05052 h 4.30249 c 4.16599,0 4.32605,0.0202 5.04485,0.63822 l 0.74236,0.63822 0.0774,7.81172 0.0774,7.81172 -0.78282,0.87662 -0.78281,0.87662 -4.37369,0.0887 -4.37369,0.0887 -0.30717,1.49883 c -0.52162,2.54521 -2.30955,7.68227 -3.6464,10.47677 -6.45161,13.48626 -18.64921,23.52409 -32.95129,27.1168 l -2.9431,0.73931 -0.0725,4.38508 -0.0725,4.38508 -0.80773,0.67967 -0.80774,0.67966 -7.71876,-0.008 c -4.99585,-0.005 -7.89084,-0.10808 -8.20657,-0.29161 z m 9.08677,-18.35347 v -13.89063 h -2.77813 -2.77812 v 13.89063 13.89062 h 2.77812 2.77813 z m -10.05417,-12.01691 c 0,-2.75299 0.074,-5.19817 0.16435,-5.43374 0.41659,-1.0856 1.31429,-1.20248 9.23557,-1.20248 h 7.57412 l 0.77339,0.7734 0.7734,0.7734 v 5.04743 c 0,4.36522 0.055,5.04744 0.40685,5.04744 0.22377,0 1.50369,-0.42099 2.84427,-0.93553 7.9532,-3.05258 14.81502,-9.30144 18.72186,-17.04947 1.06226,-2.10668 2.36869,-5.56523 2.36869,-6.27072 0,-0.27872 -1.03238,-0.35053 -5.03911,-0.35053 -4.99739,0 -5.04449,-0.005 -5.68854,-0.64943 l -0.64943,-0.64943 v -7.7956 c 0,-4.28758 0.0739,-7.98833 0.16435,-8.2239 0.38334,-0.99896 1.47279,-1.20247 6.43709,-1.20247 2.6266,0 4.77564,-0.0524 4.77564,-0.11653 0,-0.50501 -1.62255,-4.45351 -2.67024,-6.49806 -3.19995,-6.24465 -8.85103,-11.83635 -15.18922,-15.0296 -2.25907,-1.13815 -5.51435,-2.4329 -6.11683,-2.4329 -0.2969,0 -0.36538,0.87024 -0.36538,4.64335 0,4.82541 -0.20948,5.92375 -1.20248,6.3048 -0.23556,0.0904 -3.93632,0.16435 -8.22389,0.16435 h -7.7956 l -0.64943,-0.64943 c -0.64283,-0.64283 -0.64943,-0.69932 -0.64943,-5.55625 0,-4.23869 -0.0554,-4.90682 -0.40685,-4.90682 -0.70621,0 -5.16948,1.82611 -7.19186,2.94248 -5.8248,3.21537 -11.23277,8.7732 -14.28206,14.67786 -0.99605,1.92875 -2.4609,5.62402 -2.4609,6.20793 0,0.14644 2.02244,0.24882 4.91515,0.24882 h 4.91514 l 0.7734,0.77339 0.7734,0.7734 v 7.57412 c 0,7.92128 -0.11688,8.81898 -1.20248,9.23556 -0.23557,0.0904 -2.68075,0.16436 -5.43375,0.16436 -2.75299,0 -5.00544,0.046 -5.00544,0.10219 0,0.0562 0.31297,1.03847 0.6955,2.18281 3.24888,9.71926 11.22805,17.90924 21.00033,21.55517 3.16121,1.17941 2.91042,1.54472 2.91042,-4.23937 z m 6.54954,-17.24177 c -1.68787,-0.3979 -4.17691,-1.81329 -5.47956,-3.11594 -1.5777,-1.57769 -2.51922,-3.18344 -3.0406,-5.18566 -1.7664,-6.78347 2.50977,-13.30852 9.50719,-14.50713 3.42213,-0.58618 6.96208,0.56637 9.6686,3.14795 3.72519,3.55323 4.6642,8.85333 2.38778,13.4774 -2.30976,4.69178 -7.97609,7.37797 -13.04341,6.18338 z m 5.81554,-5.09711 c 2.16943,-1.13117 3.54842,-3.31833 3.72314,-5.90511 0.25078,-3.71272 -2.54126,-6.89227 -6.30154,-7.17617 -2.93167,-0.22135 -5.34532,1.08837 -6.66652,3.61743 -0.59554,1.14 -0.73778,1.7551 -0.7331,3.17016 0.01,2.8783 1.28312,4.9903 3.77071,6.25295 1.21693,0.61769 1.62095,0.68901 3.36723,0.59441 1.14862,-0.0622 2.34477,-0.29541 2.84008,-0.55367 z m -30.09216,-6.39005 v -4.6302 h -13.89063 -13.89062 v 4.6302 4.63021 h 13.89062 13.89063 z m 77.78749,0 v -4.6302 h -12.03854 -12.03854 v 4.6302 4.63021 h 12.03854 12.03854 z M 631.58842,109.13428 V 95.111365 h -2.77813 -2.77812 v 14.022915 14.02292 h 2.77812 2.77813 z"
         id="path240" />
      <path
         style="fill:#df5d52;stroke-width:0.264583"
         d="m 622.50165,209.11171 c -0.965,-0.56094 -1.23198,-1.8588 -1.23198,-5.98891 v -3.92432 l -1.65365,-0.33989 c -2.33198,-0.47931 -7.46269,-2.22723 -10.04867,-3.42335 -10.69613,-4.94739 -20.11561,-14.59052 -24.79837,-25.38717 -1.1796,-2.71971 -2.46981,-6.64857 -2.95202,-8.98931 l -0.34066,-1.65365 h -3.92432 c -4.18827,0 -5.46165,-0.27219 -6.00268,-1.28312 -0.39811,-0.74388 -0.39097,-15.39465 0.008,-16.27015 0.48587,-1.06636 1.18961,-1.22864 5.63086,-1.29839 l 4.20488,-0.066 0.73928,-2.94309 c 4.13829,-16.47458 16.73579,-29.95957 32.9376,-35.25805 1.73641,-0.56786 3.83158,-1.17069 4.65594,-1.33964 l 1.49883,-0.30717 0.0887,-4.373688 0.0887,-4.373688 0.87662,-0.782818 0.87662,-0.782818 7.81172,0.07736 7.81172,0.07736 0.63822,0.742358 c 0.61775,0.71854 0.63822,0.879847 0.63822,5.027551 v 4.285193 l 3.24115,0.82586 c 12.05773,3.07235 22.63265,10.70856 29.63309,21.3982 2.94431,4.49594 5.43748,10.3801 6.69835,15.80886 l 0.47625,2.05052 h 4.30249 c 4.16599,0 4.32605,0.0202 5.04485,0.63822 l 0.74236,0.63822 0.0774,7.81172 0.0774,7.81172 -0.78282,0.87662 -0.78281,0.87662 -4.37369,0.0887 -4.37369,0.0887 -0.30717,1.49883 c -0.52162,2.54521 -2.30955,7.68227 -3.6464,10.47677 -6.45161,13.48626 -18.64921,23.52409 -32.95129,27.1168 l -2.9431,0.73931 -0.0725,4.38508 -0.0725,4.38508 -0.80773,0.67967 -0.80774,0.67966 -7.71876,-0.008 c -4.99585,-0.005 -7.89084,-0.10808 -8.20657,-0.29161 z m 12.92322,-18.35347 v -14.02292 l -4.69635,-0.0722 -4.69635,-0.0722 v 14.16742 14.16741 l 4.69635,-0.0722 4.69635,-0.0722 z m -13.89062,-12.01691 c 0,-2.75299 0.074,-5.19817 0.16435,-5.43374 0.41659,-1.0856 1.31429,-1.20248 9.23557,-1.20248 h 7.57412 l 0.77339,0.7734 0.7734,0.7734 v 5.04743 c 0,4.36522 0.055,5.04744 0.40685,5.04744 0.22377,0 1.50369,-0.42099 2.84427,-0.93553 7.9532,-3.05258 14.81502,-9.30144 18.72186,-17.04947 1.06226,-2.10668 2.36869,-5.56523 2.36869,-6.27072 0,-0.27872 -1.03238,-0.35053 -5.03911,-0.35053 -4.99739,0 -5.04449,-0.005 -5.68854,-0.64943 l -0.64943,-0.64943 v -7.7956 c 0,-4.28758 0.0739,-7.98833 0.16435,-8.2239 0.38334,-0.99896 1.47279,-1.20247 6.43709,-1.20247 2.6266,0 4.77564,-0.0524 4.77564,-0.11653 0,-0.50501 -1.62255,-4.45351 -2.67024,-6.49806 -3.19995,-6.24465 -8.85103,-11.83635 -15.18922,-15.0296 -2.25907,-1.13815 -5.51435,-2.4329 -6.11683,-2.4329 -0.2969,0 -0.36538,0.87024 -0.36538,4.64335 0,4.82541 -0.20948,5.92375 -1.20248,6.3048 -0.23556,0.0904 -3.93632,0.16435 -8.22389,0.16435 h -7.7956 l -0.64943,-0.64943 c -0.64283,-0.64283 -0.64943,-0.69932 -0.64943,-5.55625 0,-4.23869 -0.0554,-4.90682 -0.40685,-4.90682 -0.70621,0 -5.16948,1.82611 -7.19186,2.94248 -5.8248,3.21537 -11.23277,8.7732 -14.28206,14.67786 -0.99605,1.92875 -2.4609,5.62402 -2.4609,6.20793 0,0.14644 2.02244,0.24882 4.91515,0.24882 h 4.91514 l 0.7734,0.77339 0.7734,0.7734 v 7.57412 c 0,7.92128 -0.11688,8.81898 -1.20248,9.23556 -0.23557,0.0904 -2.68075,0.16436 -5.43375,0.16436 -2.75299,0 -5.00544,0.046 -5.00544,0.10219 0,0.0562 0.31297,1.03847 0.6955,2.18281 3.24888,9.71926 11.22805,17.90924 21.00033,21.55517 3.16121,1.17941 2.91042,1.54472 2.91042,-4.23937 z m 6.54954,-17.24177 c -1.68787,-0.3979 -4.17691,-1.81329 -5.47956,-3.11594 -1.5777,-1.57769 -2.51922,-3.18344 -3.0406,-5.18566 -1.7664,-6.78347 2.50977,-13.30852 9.50719,-14.50713 3.42213,-0.58618 6.96208,0.56637 9.6686,3.14795 3.72519,3.55323 4.6642,8.85333 2.38778,13.4774 -2.30976,4.69178 -7.97609,7.37797 -13.04341,6.18338 z m 5.88769,-5.13807 c 2.36359,-1.19773 3.68715,-3.42875 3.69654,-6.23099 0.0217,-6.48309 -7.86605,-9.4371 -12.16327,-4.55521 -1.05365,1.19701 -1.85383,3.16934 -1.85383,4.56941 0,1.27341 0.80527,3.4343 1.62978,4.37335 2.38502,2.71639 5.61575,3.40167 8.69078,1.84344 z m -29.95977,-6.41523 -0.0722,-4.69636 h -14.02292 -14.02291 l -0.0723,4.69636 -0.0722,4.69635 h 14.16741 14.16742 z m 81.5517,-0.0661 v -4.7625 H 671.5405 657.51758 v 4.7625 4.7625 h 14.02292 14.02291 z M 635.55717,109.13428 V 95.111365 h -4.7625 -4.7625 v 14.022915 14.02292 h 4.7625 4.7625 z"
         id="path238" />
      <path
         style="fill:#f24234;stroke-width:0.264583"
         d="m 622.72488,209.09605 c -0.93989,-0.53147 -1.0562,-1.06929 -1.19063,-5.50552 l -0.13229,-4.36563 -1.45521,-0.34156 c -8.1513,-1.91326 -15.31478,-5.50475 -21.80163,-10.9305 -7.69568,-6.43684 -13.64563,-16.17649 -16.14672,-26.43106 l -0.54852,-2.24896 -4.23334,-0.066 c -2.45049,-0.0382 -4.47173,-0.18976 -4.79942,-0.3598 -1.06559,-0.55296 -1.1537,-1.25038 -1.1537,-9.13196 v -7.54853 l 0.7734,-0.7734 0.77339,-0.77339 h 4.35156 4.35155 l 0.32434,-1.65365 c 0.90363,-4.60715 3.84483,-11.67761 6.63127,-15.94114 3.31832,-5.07739 8.47067,-10.55982 12.87178,-13.69641 5.53353,-3.94364 12.73999,-7.18124 18.67219,-8.38873 l 1.52135,-0.30967 v -4.311187 c 0,-3.960879 0.0446,-4.367831 0.54837,-5.008325 l 0.54837,-0.697139 h 8.02128 c 7.50009,0 8.06186,0.03283 8.6459,0.505223 0.60571,0.489923 0.62715,0.64214 0.70818,5.026412 l 0.0836,4.521186 0.71019,0.16125 c 9.09004,2.06391 16.42983,5.69348 22.80671,11.27807 8.46183,7.4105 13.61193,16.21966 16.24482,27.7865 l 0.16561,0.72761 4.16215,0.004 c 2.81999,0.003 4.37545,0.11166 4.82361,0.33807 1.21504,0.61386 1.36422,1.74654 1.27347,9.66931 l -0.0829,7.23316 -0.74236,0.63819 c -0.71924,0.61834 -0.87723,0.63821 -5.07447,0.63821 h -4.33211 l -0.31087,1.52135 c -0.57667,2.82211 -2.57756,8.45169 -4.06294,11.43117 -2.77433,5.565 -5.70859,9.52796 -10.39475,14.03901 -6.26018,6.02625 -13.60822,10.135 -21.9021,12.24682 l -3.31894,0.84508 v 4.3203 4.32031 l -0.7734,0.77339 -0.77339,0.7734 -7.62713,-0.008 c -5.17095,-0.005 -7.79753,-0.10441 -8.15628,-0.30727 z m 12.69999,-18.33781 v -14.02292 l -4.69635,-0.0722 -4.69635,-0.0722 v 14.16742 14.16741 l 4.69635,-0.0722 4.69635,-0.0722 z m -14.00446,-1.8994 c -0.0738,-0.19226 -0.2867,-0.34016 -0.47317,-0.32867 -0.26555,0.0163 -0.26734,0.0498 -0.008,0.15434 0.23045,0.093 0.34752,0.98921 0.38611,2.95567 l 0.0554,2.82222 0.0871,-2.627 c 0.0479,-1.44485 0.0267,-2.7843 -0.0471,-2.97656 z m 19.35677,-0.24483 c -0.0879,-0.0879 -0.31613,-0.0973 -0.50712,-0.0209 -0.21107,0.0845 -0.14838,0.14716 0.15985,0.15985 0.27891,0.0115 0.43518,-0.051 0.34727,-0.13896 z m -38.55751,-3.37102 c 0,-0.0502 -0.26789,-0.31809 -0.59531,-0.59531 l -0.59532,-0.50403 0.50403,0.59531 c 0.47366,0.55945 0.6866,0.71577 0.6866,0.50403 z m 19.31458,-6.41136 v -5.17972 l 0.78473,-0.78473 0.78472,-0.78473 7.80727,0.0775 c 7.71978,0.0766 7.81401,0.0842 8.40954,0.67946 0.5762,0.57591 0.60801,0.83009 0.73457,5.86879 l 0.13229,5.2668 1.5875,-0.53303 c 10.34332,-3.47293 18.71079,-11.85254 22.26239,-22.29467 0.34324,-1.00917 0.62407,-1.87353 0.62407,-1.9208 0,-0.0473 -2.32713,-0.0859 -5.1714,-0.0859 -5.13785,0 -5.17562,-0.004 -5.82083,-0.64943 l -0.64943,-0.64943 v -7.83759 -7.83759 l 0.77339,-0.7734 0.7734,-0.77339 h 4.91515 c 3.33001,0 4.91514,-0.0918 4.91514,-0.28453 0,-0.75217 -2.26276,-5.91958 -3.46703,-7.91756 -1.82289,-3.02433 -3.46932,-5.04695 -6.30442,-7.74492 -3.69378,-3.5151 -7.58311,-5.9154 -12.25511,-7.56323 l -2.31511,-0.81655 v 4.90771 4.9077 l -0.7734,0.7734 -0.77339,0.77339 h -7.79625 c -7.27842,0 -7.83774,-0.0335 -8.42087,-0.50518 -0.6087,-0.49231 -0.628,-0.63688 -0.75692,-5.67029 l -0.13229,-5.16509 -1.5875,0.53117 c -10.25825,3.43237 -18.49248,11.5396 -22.18228,21.84013 l -0.68154,1.90262 5.14133,0.0818 c 4.94231,0.0786 5.16463,0.10507 5.74337,0.68404 0.59531,0.59555 0.6029,0.68952 0.67951,8.40954 l 0.0775,7.80727 -0.78473,0.78472 -0.78473,0.78473 h -5.04743 c -2.77609,0 -5.04744,0.0982 -5.04744,0.21824 0,0.50847 1.32328,4.03792 2.22544,5.93566 3.192,6.7146 9.21753,12.81437 16.02275,16.22016 1.77275,0.88721 5.6504,2.45089 6.15962,2.48391 0.10914,0.007 0.19844,-2.31802 0.19844,-5.16687 z m 6.87917,-17.33577 c -5.79771,-1.13225 -10.06209,-7.29849 -9.0666,-13.11016 0.84886,-4.9556 4.6049,-8.74451 9.54358,-9.62711 4.8566,-0.86792 9.88134,1.70417 12.10032,6.19398 4.30512,8.71082 -3.06238,18.4015 -12.5773,16.54329 z m 5.53917,-5.1248 c 3.39797,-1.72189 4.75999,-6.02964 2.98233,-9.43246 -1.3052,-2.49845 -4.45646,-4.20868 -7.0099,-3.80436 -3.42594,0.54247 -6.2741,3.72491 -6.2741,7.01046 0,1.744 0.8242,3.55298 2.254,4.94713 2.32972,2.27164 5.19154,2.72654 8.04767,1.27923 z m -33.58501,27.30193 c 0,-0.0406 -0.80367,-0.84426 -1.78593,-1.78594 l -1.78594,-1.71215 1.71215,1.78594 c 1.59032,1.65886 1.85972,1.90689 1.85972,1.71215 z m 53.47959,-1.18298 c 0.3291,-0.41965 0.31974,-0.42901 -0.0999,-0.0999 -0.44073,0.34564 -0.58089,0.56292 -0.36313,0.56292 0.0549,0 0.26331,-0.20836 0.46303,-0.46302 z m -46.33584,-0.16605 c 0,-0.0549 -0.20835,-0.2633 -0.46302,-0.46302 -0.41964,-0.3291 -0.429,-0.31975 -0.0999,0.0999 0.34564,0.44073 0.56291,0.58089 0.56291,0.36312 z m 47.39417,-0.6277 c 0.32911,-0.41965 0.31975,-0.42901 -0.0999,-0.0999 -0.44073,0.34564 -0.58088,0.56292 -0.36312,0.56292 0.0549,0 0.2633,-0.20836 0.46302,-0.46302 z m -48.4525,-0.16605 c 0,-0.0549 -0.20836,-0.2633 -0.46302,-0.46302 -0.41964,-0.3291 -0.429,-0.31975 -0.0999,0.0999 0.34565,0.44073 0.56292,0.58089 0.56292,0.36312 z m 49.60937,-0.69385 c 0.26339,-0.29104 0.41936,-0.52917 0.3466,-0.52917 -0.0728,0 -0.34779,0.23813 -0.61118,0.52917 -0.26339,0.29104 -0.41936,0.52917 -0.3466,0.52917 0.0728,0 0.34779,-0.23813 0.61118,-0.52917 z M 604.8655,180.2286 c 0,-0.0432 -0.50601,-0.54924 -1.12448,-1.12448 l -1.12448,-1.04588 1.04589,1.12448 c 0.97266,1.04575 1.20307,1.24606 1.20307,1.04588 z m 54.10729,-2.03807 c 0.86402,-0.87313 1.5114,-1.5875 1.43864,-1.5875 -0.0728,0 -0.83921,0.71437 -1.70322,1.5875 -0.86402,0.87312 -1.51141,1.5875 -1.43865,1.5875 0.0728,0 0.83921,-0.71438 1.70323,-1.5875 z m -62.57396,1.23163 c 0,-0.0502 -0.26789,-0.3181 -0.59531,-0.59531 l -0.59531,-0.50403 0.50403,0.59531 c 0.47366,0.55945 0.68659,0.71576 0.68659,0.50403 z m 6.08542,-1.5766 c 0,-0.0442 -0.44648,-0.4907 -0.99219,-0.99219 l -0.99218,-0.9118 0.9118,0.99219 c 0.84868,0.9235 1.07257,1.11384 1.07257,0.9118 z m 59.03583,-2.4993 c 0.32911,-0.41965 0.31975,-0.42901 -0.0999,-0.0999 -0.44073,0.34564 -0.58089,0.56292 -0.36313,0.56292 0.0549,0 0.2633,-0.20836 0.46302,-0.46302 z M 600.103,175.18022 c 0,-0.0549 -0.20836,-0.26331 -0.46302,-0.46303 -0.41964,-0.3291 -0.429,-0.31974 -0.0999,0.0999 0.34565,0.44073 0.56292,0.58089 0.56292,0.36313 z m 62.47542,-1.15688 c 0.3291,-0.41964 0.31974,-0.429 -0.0999,-0.0999 -0.25466,0.19972 -0.46302,0.40808 -0.46302,0.46303 0,0.21776 0.21727,0.0776 0.56292,-0.36313 z m 4.45606,-7.60677 c 0,-0.14552 -0.11542,-0.086 -0.25648,0.13229 -0.14107,0.21828 -0.25648,0.51594 -0.25648,0.66146 0,0.14552 0.11541,0.086 0.25648,-0.13229 0.14106,-0.21828 0.25648,-0.51594 0.25648,-0.66146 z m 4.38104,-7.08495 1.84477,-0.10036 -1.96321,0.0208 c -1.50852,0.016 -1.9881,0.1127 -2.07066,0.41766 -0.0757,0.27965 -0.0407,0.30316 0.11844,0.0796 0.12498,-0.17556 1.04997,-0.36213 2.07066,-0.41765 z m -80.63908,-0.12203 c -0.83675,-0.0525 -2.20596,-0.0525 -3.04271,0 -0.83674,0.0525 -0.15213,0.0955 1.52136,0.0955 1.67348,0 2.35809,-0.043 1.52135,-0.0955 z m 13.23527,-9.26333 -0.0722,-4.69636 h -14.02292 -14.02291 l -0.0723,4.69636 -0.0722,4.69635 h 14.16741 14.16742 z m 81.5517,-0.0661 v -4.7625 H 671.5405 657.51758 v 4.7625 4.7625 h 14.02292 14.02291 z M 666.11654,131.8885 c -0.22576,-0.43657 -0.47,-0.79375 -0.54276,-0.79375 -0.0728,0 0.0524,0.35718 0.27818,0.79375 0.22575,0.43656 0.46999,0.79375 0.54275,0.79375 0.0728,0 -0.0524,-0.35719 -0.27817,-0.79375 z m -75.27395,-3.43959 c 0.15576,-0.29104 0.22367,-0.52916 0.15091,-0.52916 -0.0728,0 -0.25974,0.23812 -0.4155,0.52916 -0.15576,0.29105 -0.22367,0.52917 -0.15091,0.52917 0.0728,0 0.25974,-0.23812 0.4155,-0.52917 z m 8.23583,-2.05052 c 0.32911,-0.41964 0.31975,-0.429 -0.0999,-0.0999 -0.25466,0.19972 -0.46302,0.40808 -0.46302,0.46302 0,0.21776 0.21727,0.0776 0.56292,-0.36313 z m 0.89229,-1.12448 c 0.26339,-0.29104 0.41936,-0.52916 0.3466,-0.52916 -0.0728,0 -0.34779,0.23812 -0.61118,0.52916 -0.26339,0.29105 -0.41936,0.52917 -0.3466,0.52917 0.0728,0 0.34779,-0.23812 0.61118,-0.52917 z m 61.78021,-0.0913 c 0,-0.0502 -0.2679,-0.3181 -0.59532,-0.59531 l -0.59531,-0.50403 0.50403,0.59531 c 0.47366,0.55945 0.6866,0.71576 0.6866,0.50403 z m -58.86979,-3.08372 c 1.15733,-1.16416 2.04472,-2.11666 1.97196,-2.11666 -0.0728,0 -1.07921,0.9525 -2.23655,2.11666 -1.15733,1.16417 -2.04472,2.11667 -1.97196,2.11667 0.0728,0 1.07921,-0.9525 2.23655,-2.11667 z m -8.56521,0.8599 c 0.32911,-0.41965 0.31975,-0.429 -0.0999,-0.0999 -0.25466,0.19972 -0.46302,0.40808 -0.46302,0.46302 0,0.21777 0.21727,0.0776 0.56292,-0.36312 z m 65.8475,0.38693 c 0,-0.0419 -0.62508,-0.66693 -1.38907,-1.38906 l -1.38906,-1.31297 1.31297,1.38906 c 1.22004,1.29074 1.46516,1.5104 1.46516,1.31297 z M 635.55717,109.13428 V 95.111365 h -4.7625 -4.7625 v 14.022915 14.02292 h 4.7625 4.7625 z m -40.4475,12.76615 c 0.32911,-0.41965 0.31975,-0.42901 -0.0999,-0.0999 -0.25466,0.19972 -0.46302,0.40808 -0.46302,0.46302 0,0.21776 0.21727,0.0776 0.56292,-0.36312 z m 1.42146,-1.65365 c 0.26339,-0.29104 0.41936,-0.52917 0.3466,-0.52917 -0.0728,0 -0.3478,0.23813 -0.61119,0.52917 -0.26339,0.29104 -0.41936,0.52917 -0.3466,0.52917 0.0728,0 0.3478,-0.23813 0.61119,-0.52917 z m 60.1927,-0.0913 c 0,-0.0502 -0.26789,-0.3181 -0.59531,-0.59532 l -0.59531,-0.50402 0.50403,0.59531 c 0.47366,0.55944 0.68659,0.71576 0.68659,0.50403 z m -50.76625,-0.90091 c 0.32911,-0.41964 0.31975,-0.429 -0.0999,-0.0999 -0.44073,0.34564 -0.58089,0.56291 -0.36313,0.56291 0.0549,0 0.2633,-0.20836 0.46302,-0.46302 z m 49.17875,-0.43062 c 0,-0.0549 -0.20836,-0.2633 -0.46302,-0.46302 -0.41964,-0.32911 -0.429,-0.31975 -0.0999,0.0999 0.34564,0.44073 0.56291,0.58089 0.56291,0.36313 z m -56.32249,-1.15688 c 0.3291,-0.41964 0.31974,-0.429 -0.0999,-0.0999 -0.25466,0.19972 -0.46302,0.40808 -0.46302,0.46302 0,0.21776 0.21727,0.0776 0.56292,-0.36313 z m 2.47979,-2.18281 c 0.26339,-0.29104 0.41936,-0.52917 0.3466,-0.52917 -0.0728,0 -0.3478,0.23813 -0.61119,0.52917 -0.26339,0.29104 -0.41936,0.52917 -0.3466,0.52917 0.0728,0 0.3478,-0.23813 0.61119,-0.52917 z m 49.0802,0.1416 c 0,-0.0676 -0.26789,-0.2528 -0.59531,-0.41147 -0.57167,-0.27703 -0.57491,-0.27214 -0.0817,0.12298 0.53982,0.43249 0.67703,0.49095 0.67703,0.28849 z m -47.59125,-1.39837 c 0.32911,-0.41965 0.31975,-0.429 -0.0999,-0.0999 -0.44073,0.34565 -0.58089,0.56292 -0.36313,0.56292 0.0549,0 0.2633,-0.20836 0.46302,-0.46302 z m 18.69331,-5.90928 -0.0765,-3.02041 -0.131,3.22893 c -0.072,1.7759 -0.0376,3.13509 0.0765,3.0204 0.11413,-0.11469 0.17308,-1.5677 0.131,-3.22892 z"
         id="path236" />
      <path
         style="fill:#c7352a;stroke-width:0.264583"
         d="m 622.72488,209.09605 c -0.93989,-0.53147 -1.0562,-1.06929 -1.19063,-5.50552 l -0.13229,-4.36563 -1.45521,-0.34156 c -8.1513,-1.91326 -15.31478,-5.50475 -21.80163,-10.9305 -7.69568,-6.43684 -13.64563,-16.17649 -16.14672,-26.43106 l -0.54852,-2.24896 -4.23334,-0.066 c -2.45049,-0.0382 -4.47173,-0.18976 -4.79942,-0.3598 -1.06559,-0.55296 -1.1537,-1.25038 -1.1537,-9.13196 v -7.54853 l 0.7734,-0.7734 0.77339,-0.77339 h 4.35156 4.35155 l 0.32434,-1.65365 c 0.90363,-4.60715 3.84483,-11.67761 6.63127,-15.94114 3.31832,-5.07739 8.47067,-10.55982 12.87178,-13.69641 5.53353,-3.94364 12.73999,-7.18124 18.67219,-8.38873 l 1.52135,-0.30967 v -4.311187 c 0,-3.960879 0.0446,-4.367831 0.54837,-5.008325 l 0.54837,-0.697139 h 8.02128 c 7.50009,0 8.06186,0.03283 8.6459,0.505223 0.60571,0.489923 0.62715,0.64214 0.70818,5.026412 l 0.0836,4.521186 0.71019,0.16125 c 9.09004,2.06391 16.42983,5.69348 22.80671,11.27807 8.46183,7.4105 13.61193,16.21966 16.24482,27.7865 l 0.16561,0.72761 4.16215,0.004 c 2.81999,0.003 4.37545,0.11166 4.82361,0.33807 1.21504,0.61386 1.36422,1.74654 1.27347,9.66931 l -0.0829,7.23316 -0.74236,0.63819 c -0.71924,0.61834 -0.87723,0.63821 -5.07447,0.63821 h -4.33211 l -0.31087,1.52135 c -0.57667,2.82211 -2.57756,8.45169 -4.06294,11.43117 -2.77433,5.565 -5.70859,9.52796 -10.39475,14.03901 -6.26018,6.02625 -13.60822,10.135 -21.9021,12.24682 l -3.31894,0.84508 v 4.3203 4.32031 l -0.7734,0.77339 -0.77339,0.7734 -7.62713,-0.008 c -5.17095,-0.005 -7.79753,-0.10441 -8.15628,-0.30727 z m 12.69999,-18.33781 v -14.02292 l -4.69635,-0.0722 -4.69635,-0.0722 v 14.16742 14.16741 l 4.69635,-0.0722 4.69635,-0.0722 z m -13.94781,0.78499 -0.0751,-2.78689 -3.12734,-1.04745 c -9.95644,-3.33475 -18.2695,-10.49888 -22.86493,-19.70482 -1.12306,-2.24982 -2.52317,-5.87959 -2.98519,-7.73906 l -0.27939,-1.12448 h -2.93404 -2.93403 l 0.17861,1.12448 c 0.2768,1.7426 1.91442,6.42727 3.16779,9.06198 5.61112,11.79515 15.95847,20.60798 28.58045,24.34195 3.52558,1.04298 3.36143,1.14959 3.27317,-2.12571 z m 23.79239,0.71027 c 2.38973,-0.95857 6.221,-2.96815 8.27938,-4.3427 3.19619,-2.13435 5.05367,-3.71145 8.03202,-6.81959 5.21216,-5.43931 9.02255,-12.13575 10.90633,-19.16694 0.35172,-1.31277 0.63978,-2.47616 0.64015,-2.5853 10e-4,-0.35814 -3.71097,-0.2295 -3.8174,0.13229 -1.63179,5.54682 -3.12066,8.86177 -5.73845,12.7766 -3.27475,4.89729 -7.7119,9.06107 -12.96208,12.16349 -2.57219,1.51995 -6.91566,3.34891 -9.21182,3.87892 l -1.3425,0.30989 v 2.70396 2.70395 l 1.91823,-0.60093 c 1.05503,-0.33051 2.53829,-0.84965 3.29614,-1.15364 z m -23.7352,-13.42187 v -5.17972 l 0.78473,-0.78473 0.78472,-0.78473 7.80727,0.0775 c 7.71978,0.0766 7.81401,0.0842 8.40954,0.67946 0.5762,0.57591 0.60801,0.83009 0.73457,5.86879 l 0.13229,5.2668 1.5875,-0.53303 c 10.34332,-3.47293 18.71079,-11.85254 22.26239,-22.29467 0.34324,-1.00917 0.62407,-1.87353 0.62407,-1.9208 0,-0.0473 -2.32713,-0.0859 -5.1714,-0.0859 -5.13785,0 -5.17562,-0.004 -5.82083,-0.64943 l -0.64943,-0.64943 v -7.83759 -7.83759 l 0.77339,-0.7734 0.7734,-0.77339 h 4.91515 c 3.33001,0 4.91514,-0.0918 4.91514,-0.28453 0,-0.75217 -2.26276,-5.91958 -3.46703,-7.91756 -1.82289,-3.02433 -3.46932,-5.04695 -6.30442,-7.74492 -3.69378,-3.5151 -7.58311,-5.9154 -12.25511,-7.56323 l -2.31511,-0.81655 v 4.90771 4.9077 l -0.7734,0.7734 -0.77339,0.77339 h -7.79625 c -7.27842,0 -7.83774,-0.0335 -8.42087,-0.50518 -0.6087,-0.49231 -0.628,-0.63688 -0.75692,-5.67029 l -0.13229,-5.16509 -1.5875,0.53117 c -10.25825,3.43237 -18.49248,11.5396 -22.18228,21.84013 l -0.68154,1.90262 5.14133,0.0818 c 4.94231,0.0786 5.16463,0.10507 5.74337,0.68404 0.59531,0.59555 0.6029,0.68952 0.67951,8.40954 l 0.0775,7.80727 -0.78473,0.78472 -0.78473,0.78473 h -5.04743 c -2.77609,0 -5.04744,0.0982 -5.04744,0.21824 0,0.50847 1.32328,4.03792 2.22544,5.93566 3.192,6.7146 9.21753,12.81437 16.02275,16.22016 1.77275,0.88721 5.6504,2.45089 6.15962,2.48391 0.10914,0.007 0.19844,-2.31802 0.19844,-5.16687 z m 6.87917,-17.33577 c -5.79771,-1.13225 -10.06209,-7.29849 -9.0666,-13.11016 0.84886,-4.9556 4.6049,-8.74451 9.54358,-9.62711 4.8566,-0.86792 9.88134,1.70417 12.10032,6.19398 4.30512,8.71082 -3.06238,18.4015 -12.5773,16.54329 z m 5.53917,-5.1248 c 3.39797,-1.72189 4.75999,-6.02964 2.98233,-9.43246 -1.3052,-2.49845 -4.45646,-4.20868 -7.0099,-3.80436 -3.42594,0.54247 -6.2741,3.72491 -6.2741,7.01046 0,1.744 0.8242,3.55298 2.254,4.94713 2.32972,2.27164 5.19154,2.72654 8.04767,1.27923 z m -29.94088,-6.4248 -0.0722,-4.69636 h -14.02292 -14.02291 l -0.0723,4.69636 -0.0722,4.69635 h 14.16741 14.16742 z m 81.5517,-0.0661 v -4.7625 H 671.5405 657.51758 v 4.7625 4.7625 h 14.02292 14.02291 z m -93.13332,-9.62352 c 0,-0.7826 1.41755,-4.66634 2.6409,-7.23541 1.9326,-4.05851 4.19562,-7.19378 7.80051,-10.80709 4.77282,-4.78397 9.35046,-7.63681 15.48123,-9.6481 l 3.04923,-1.00034 0.0748,-3.09884 0.0748,-3.09884 -1.00085,0.18073 c -3.37591,0.6096 -10.29881,3.51058 -14.02524,5.87717 -6.99375,4.44158 -13.20742,11.39103 -16.74777,18.73092 -1.38587,2.87319 -3.02862,7.491 -3.32207,9.33843 l -0.17861,1.12448 h 3.07652 c 2.43112,0 3.07653,-0.0762 3.07653,-0.36311 z m 80.69791,0.15935 c 0,-0.40845 -1.10614,-4.20877 -1.73788,-5.97075 -3.91166,-10.91006 -12.42954,-20.33304 -23.00066,-25.44469 -2.53885,-1.22765 -7.36007,-3.04122 -8.08485,-3.04122 -0.1409,0 -0.24953,1.24292 -0.24953,2.85509 v 2.85508 l 1.78594,0.47331 c 2.63565,0.69851 6.37144,2.32501 9.13646,3.97787 8.22037,4.91393 14.45672,12.71229 17.42313,21.78709 l 0.8865,2.71198 h 1.92045 c 1.05624,0 1.92044,-0.0917 1.92044,-0.20376 z M 635.55717,109.13428 V 95.111365 h -4.7625 -4.7625 v 14.022915 14.02292 h 4.7625 4.7625 z"
         id="path234" />
      <path
         style="fill:#020101;stroke-width:0.264583"
         d="m 622.36154,208.73752 -0.82729,-0.69612 v -4.43997 -4.43997 l -1.65365,-0.32434 c -4.28123,-0.83971 -10.98549,-3.53342 -15.14739,-6.08609 -6.57382,-4.03199 -12.77748,-10.23564 -16.80947,-16.80946 -2.55266,-4.1619 -5.24637,-10.86617 -6.08608,-15.1474 l -0.32434,-1.65364 h -4.43997 -4.43997 l -0.69612,-0.82729 -0.69612,-0.82729 0.0773,-7.79491 0.0773,-7.7949 0.74236,-0.63822 c 0.71846,-0.61768 0.8803,-0.63824 5.02708,-0.63883 l 4.28473,-6.1e-4 0.84605,-3.26914 c 2.16901,-8.38099 6.14868,-15.54775 12.10562,-21.80031 7.36967,-7.73541 15.42121,-12.22568 26.4051,-14.72588 l 0.7276,-0.16562 v -4.372607 c 0,-4.289747 0.0123,-4.384918 0.64943,-5.022043 l 0.64943,-0.649431 h 7.7956 c 4.28757,0 7.98833,0.07396 8.22389,0.164354 0.96617,0.370753 1.20248,1.50479 1.20248,5.77059 v 4.109137 l 0.72761,0.16159 c 6.80035,1.51022 12.47845,3.89495 17.8185,7.48354 10.96662,7.36974 18.29443,18.26069 21.25447,31.58943 l 0.16158,0.72761 h 4.10915 c 4.2658,0 5.39983,0.23631 5.77059,1.20247 0.0904,0.23557 0.16435,3.93632 0.16435,8.2239 v 7.7956 l -0.64943,0.64943 c -0.63713,0.63712 -0.7323,0.64943 -5.02204,0.64943 h -4.37262 l -0.16561,0.7276 c -1.97794,8.68949 -5.24409,15.55047 -10.4156,21.87935 -2.09996,2.56992 -6.61093,6.82664 -9.20938,8.69033 -5.13945,3.68615 -11.39107,6.6033 -17.1781,8.0157 l -2.95965,0.72235 -0.083,4.44963 c -0.11553,6.18941 0.7631,5.63317 -9.05232,5.73086 l -7.76471,0.0773 z m 13.19563,-17.97928 v -14.15521 h -4.7625 -4.7625 v 14.15521 14.1552 h 4.7625 4.7625 z m -14.02292,0.84907 v -2.98737 l -1.78594,-0.47331 c -12.03613,-3.18983 -23.07267,-13.93869 -26.65827,-25.96339 -0.39053,-1.30969 -0.75458,-2.53008 -0.80899,-2.71198 -0.0718,-0.23989 -0.94186,-0.33073 -3.16778,-0.33073 -2.79668,0 -3.05712,0.0411 -2.93664,0.46302 0.0727,0.25466 0.3872,1.395 0.69887,2.53408 1.27816,4.67135 3.80817,9.93927 6.82017,14.20081 2.27666,3.22116 7.41637,8.36144 10.64066,10.64188 2.66047,1.88165 8.05636,4.76668 10.72553,5.73463 1.45538,0.52778 5.79705,1.81553 6.27395,1.86088 0.10914,0.0104 0.19844,-1.32546 0.19844,-2.96852 z m 21.43125,2.21512 c 12.3198,-3.3744 23.20142,-12.51638 28.85868,-24.24505 1.34709,-2.7928 3.02401,-7.53449 3.32064,-9.38951 l 0.16748,-1.04734 h -3.07653 c -2.6622,0 -3.07652,0.0578 -3.07652,0.42951 0,0.94115 -1.93097,6.1193 -3.21174,8.6127 -4.84272,9.42777 -13.38104,16.62205 -23.3615,19.68411 l -2.52512,0.77472 -0.003,2.99439 c -0.003,2.72653 0.0385,2.98257 0.46012,2.86219 0.25466,-0.0727 1.35599,-0.37678 2.44739,-0.67572 z m -21.43125,-14.95569 c 0,-5.05692 0.0109,-5.15727 0.63855,-5.88698 l 0.63855,-0.74236 h 7.95306 c 7.92075,0 7.95551,0.002 8.55572,0.60199 0.57677,0.57612 0.60834,0.82859 0.73495,5.87644 l 0.13229,5.27447 2.11667,-0.74383 c 10.01718,-3.5202 17.98834,-11.49655 21.53331,-21.54734 0.45319,-1.2849 0.82398,-2.38623 0.82398,-2.44739 0,-0.0612 -2.32713,-0.11121 -5.1714,-0.11121 -5.13785,0 -5.17562,-0.004 -5.82083,-0.64943 l -0.64943,-0.64943 v -7.80248 -7.80248 l 0.638,-0.74236 0.638,-0.74236 5.05054,-0.0822 c 2.79989,-0.0456 5.05054,-0.18955 5.05054,-0.32312 0,-0.13251 -0.35311,-1.20846 -0.78469,-2.39101 -3.43737,-9.41864 -11.67647,-17.51105 -21.22597,-20.84809 l -2.2992,-0.80345 -0.0821,5.03748 -0.082,5.03749 -0.74236,0.638 -0.74236,0.638 h -7.80248 -7.80248 l -0.64943,-0.64943 c -0.64392,-0.64392 -0.64943,-0.69203 -0.64943,-5.67428 v -5.02485 l -1.38906,0.39772 c -2.57096,0.73612 -7.73991,3.46056 -10.47622,5.5218 -5.56882,4.19493 -9.88815,10.1202 -12.09516,16.59217 l -0.60373,1.77042 5.13161,0.0817 c 4.93336,0.0785 5.15486,0.10495 5.73365,0.68433 0.59961,0.60023 0.60204,0.63473 0.60204,8.55572 v 7.95306 l -0.74236,0.63855 c -0.72825,0.62641 -0.83761,0.63855 -5.75469,0.63855 -2.75678,0 -5.01233,0.0982 -5.01233,0.21824 0,0.51661 1.38065,4.21188 2.24542,6.00982 3.17457,6.6002 9.05308,12.60819 15.62073,15.96477 1.85454,0.94782 5.98045,2.62875 6.54166,2.66514 0.10914,0.007 0.19844,-2.30222 0.19844,-5.13176 z m 6.35,-17.56041 c -4.46182,-1.16624 -7.7462,-4.78348 -8.53743,-9.40264 -1.03387,-6.03572 3.31596,-12.01371 9.55558,-13.13226 4.86079,-0.87138 10.09794,1.87994 12.22313,6.42137 3.18304,6.80199 -0.79653,14.74967 -8.16107,16.29866 -1.87367,0.39409 -3.02472,0.35214 -5.08021,-0.18513 z m 4.92447,-4.4088 c 4.0414,-1.20016 6.15685,-6.07727 4.25914,-9.81936 -2.15993,-4.25917 -7.51992,-5.31568 -10.94605,-2.15758 -1.46839,1.35351 -2.20865,2.75649 -2.39034,4.53026 -0.33476,3.26826 1.61094,6.2557 4.79003,7.35465 1.66254,0.5747 2.59452,0.59471 4.28722,0.092 z m -28.73697,-7.01742 v -4.7625 h -14.15521 -14.1552 v 4.7625 4.7625 h 14.1552 14.15521 z m 81.49166,0 v -4.7625 H 671.5405 657.51758 v 4.7625 4.7625 h 14.02292 14.02291 z m -92.88084,-10.51718 c 0.58671,-2.33855 2.38309,-6.55826 3.84544,-9.03297 5.27818,-8.93216 13.60195,-15.44544 23.2203,-18.16969 l 1.78594,-0.50584 v -3.14597 -3.14598 l -1.04734,0.16748 c -3.71626,0.59425 -10.46732,3.53511 -14.86336,6.47467 -9.56341,6.39493 -16.61755,16.38121 -19.13851,27.09371 l -0.35802,1.52136 h 3.12012 3.12013 z m 82.56209,0.92072 c 0,-0.56439 -1.04002,-4.18537 -1.76534,-6.14625 -0.86602,-2.34131 -2.91258,-6.48899 -4.19656,-8.50505 -3.41181,-5.35708 -8.88774,-10.83129 -14.25271,-14.24825 -3.777,-2.40557 -10.7758,-5.35014 -13.90631,-5.85073 l -1.06866,-0.17089 v 3.15166 3.15166 l 2.56278,0.76992 c 3.29761,0.99068 8.04125,3.33794 11.05538,5.47044 3.03362,2.14628 7.20845,6.31997 9.36253,9.35996 2.00403,2.82823 4.48304,7.82877 5.4723,11.03847 l 0.71354,2.31511 h 3.01153 c 2.25825,0 3.01152,-0.0841 3.01152,-0.33605 z M 635.55717,109.13428 V 95.111365 h -4.7625 -4.7625 v 14.022915 14.02292 h 4.7625 4.7625 z"
         id="path232" />
    </g>
  </g>
</svg>
